<svg xmlns="http://www.w3.org/2000/svg" viewBox="0 0 100 100" width="100" height="100">
  <defs>
    <linearGradient id="iqbg" x1="0" y1="0" x2="1" y2="1">
      <stop offset="0" stop-color="#7C5CFF"/>
      <stop offset="1" stop-color="#3B76FF"/>
    </linearGradient>
  </defs>
  <rect x="0" y="0" width="100" height="100" rx="24" fill="url(#iqbg)"/>
  <g transform="translate(50 52) scale(0.86) translate(-50 -50)">
    <ellipse cx="30" cy="35" rx="8" ry="10" fill="#8FB9E8"/>
    <ellipse cx="70" cy="35" rx="8" ry="10" fill="#8FB9E8"/>
    <ellipse cx="20" cy="68" rx="6" ry="11" fill="#7FA9D8" transform="rotate(22 20 68)"/>
    <ellipse cx="80" cy="68" rx="6" ry="11" fill="#7FA9D8" transform="rotate(-22 80 68)"/>
    <ellipse cx="50" cy="58" rx="35" ry="33" fill="#8FB9E8"/>
    <circle cx="50" cy="55" r="25" fill="#FBEFD9"/>
    <ellipse cx="38" cy="51" rx="9" ry="12" fill="#C8A46A" opacity="0.45"/>
    <ellipse cx="62" cy="51" rx="9" ry="12" fill="#C8A46A" opacity="0.45"/>
    <circle cx="39" cy="53" r="5" fill="#3A3550"/>
    <circle cx="61" cy="53" r="5" fill="#3A3550"/>
    <circle cx="40.6" cy="51.4" r="1.6" fill="#ffffff"/>
    <circle cx="62.6" cy="51.4" r="1.6" fill="#ffffff"/>
    <circle cx="32" cy="62" r="3.4" fill="#FF9DBE" opacity="0.55"/>
    <circle cx="68" cy="62" r="3.4" fill="#FF9DBE" opacity="0.55"/>
    <ellipse cx="50" cy="62" rx="3.2" ry="2.2" fill="#6E5230"/>
    <path d="M45 66 Q50 70 55 66" fill="none" stroke="#6E5230" stroke-width="2" stroke-linecap="round"/>
  </g>
</svg>
